<?xml version="1.0" encoding="UTF-8"?>
<svg width="15px" height="15px" viewBox="0 0 15 15" version="1.1" xmlns="http://www.w3.org/2000/svg" xmlns:xlink="http://www.w3.org/1999/xlink">
    <g id="Page-1" stroke="none" stroke-width="1" fill="none" fill-rule="evenodd">
        <g id="google" fill="#979797" fill-rule="nonzero">
            <path d="M7.50274725,0.0274725275 C9.25671551,0.00671550672 10.9543227,0.62798467 12.2761893,1.76630545 L12.5054945,1.97252747 L10.3708791,4.10714286 L10.2015837,3.95453217 C9.45154463,3.3157098 8.49254317,2.97095761 7.50274725,2.98626374 C5.5521978,2.98626374 3.8956044,4.3021978 3.30494505,6.07417582 C3.02022977,6.91833167 2.99434656,7.8260603 3.22729543,8.68177484 L3.30494505,8.93681319 C3.9010989,10.706044 5.55494505,12.021978 7.50549451,12.021978 C8.42207792,12.021978 9.22059758,11.8085551 9.86183651,11.4271183 L10.0460989,11.3089687 C10.7745139,10.8258664 11.2893068,10.0888874 11.4960073,9.24801052 L11.5412088,9.03571429 L7.50274725,9.03571429 L7.50274725,6.15659341 L14.5549451,6.15659341 C14.6428571,6.65659341 14.6840659,7.16758242 14.6840659,7.67582418 C14.6840659,9.95054945 13.8708791,11.8736264 12.456044,13.1758242 L12.4560989,13.1739687 C11.2886142,14.2551893 9.70675621,14.9057201 7.83587756,14.9746699 L7.50274725,14.9807692 C4.76701524,14.9807692 2.25769574,13.488505 0.948329313,11.104036 L0.821428571,10.8626374 L0.694396749,10.5966519 C-0.196667048,8.6325148 -0.196667048,6.37847421 0.694396749,4.41433715 L0.821428571,4.14835165 L0.948329313,3.90669558 C2.25769574,1.51973677 4.76701524,0.0274725275 7.50274725,0.0274725275 Z" id="Path"></path>
        </g>
    </g>
</svg>
