<?xml version="1.0" encoding="UTF-8" standalone="no"?>
<svg width="46px" height="23px" viewBox="0 0 46 23" version="1.1" xmlns="http://www.w3.org/2000/svg" xmlns:xlink="http://www.w3.org/1999/xlink" xmlns:sketch="http://www.bohemiancoding.com/sketch/ns">
    <!-- Generator: Sketch 3.4.4 (17249) - http://www.bohemiancoding.com/sketch -->
    <title>heart-sprite</title>
    <desc>Created with Sketch.</desc>
    <defs></defs>
    <g id="Page-1" stroke="none" stroke-width="1" fill="none" fill-rule="evenodd" sketch:type="MSPage">
        <g id="heart-sprite" sketch:type="MSArtboardGroup" fill="#979797">
            <path d="M9.49979001,19.4627593 L9.24094753,19.3104385 C9.08296613,19.2172964 5.34390158,16.9916627 3.21038086,13.6195061 C2.07672283,11.8292218 1.72422363,9.93859103 2.21720792,8.2970254 C2.62116686,6.95341165 3.55773409,5.89076806 4.85503408,5.30721463 C5.30787977,5.10343407 5.77513419,5 6.2439324,5 C7.74501295,5 8.91006141,6.04360348 9.49979001,6.70897789 C10.0900332,6.04360348 11.2545671,5 12.7561622,5 C13.2249604,5 13.6922148,5.10291948 14.1445459,5.30721463 C15.4418459,5.89076806 16.3789278,6.95289705 16.7828867,8.2970254 C17.275871,9.93807644 16.9228572,11.8281926 15.7897138,13.6200207 C13.656193,16.9916627 9.91712848,19.2172964 9.75914709,19.3104385 L9.49979001,19.4627593 L9.49979001,19.4627593 Z M6.2434178,6.02147579 C5.91973605,6.02147579 5.59399591,6.09506322 5.27340174,6.23915049 C4.25038216,6.69971514 3.51193492,7.53542128 3.19442834,8.5913751 C2.78789641,9.9447662 3.09974242,11.5369305 4.07284606,13.0740329 C5.76432764,15.7468516 8.62806205,17.7105552 9.49979001,18.269408 C10.371518,17.709526 13.23834,15.7422203 14.9272486,13.0740329 C15.8998376,11.5369305 16.2121982,9.9447662 15.8051517,8.5913751 C15.4876451,7.53490668 14.7491979,6.69920054 13.7256637,6.23915049 C13.4050695,6.09506322 13.0793294,6.02147579 12.7561622,6.02147579 C11.1382681,6.02147579 9.93668318,7.79580755 9.92484744,7.81381846 L9.49979001,8.45089002 L9.07524717,7.81381846 C9.06341143,7.79683675 7.85102001,6.02147579 6.2434178,6.02147579 L6.2434178,6.02147579 Z" id="Shape" sketch:type="MSShapeGroup"></path>
            <path d="M37.49979,19.4627593 L37.2409475,19.3104385 C37.0829661,19.2172964 33.3439016,16.9916627 31.2103809,13.6195061 C30.0767228,11.8292218 29.7242236,9.93859103 30.2172079,8.2970254 C30.6211669,6.95341165 31.5577341,5.89076806 32.8550341,5.30721463 C33.3078798,5.10343407 33.7751342,5 34.2439324,5 C35.7450129,5 36.9100614,6.04360348 37.49979,6.70897789 C38.0900332,6.04360348 39.2545671,5 40.7561622,5 C41.2249604,5 41.6922148,5.10291948 42.1445459,5.30721463 C43.4418459,5.89076806 44.3789278,6.95289705 44.7828867,8.2970254 C45.275871,9.93807644 44.9228572,11.8281926 43.7897138,13.6200207 C41.656193,16.9916627 37.9171285,19.2172964 37.7591471,19.3104385 L37.49979,19.4627593 L37.49979,19.4627593 Z" id="Shape" sketch:type="MSShapeGroup"></path>
        </g>
    </g>
</svg>