<svg xmlns="http://www.w3.org/2000/svg" xmlns:xlink="http://www.w3.org/1999/xlink" width="43" height="43" version="1.1" viewBox="0 0 43 43"><g id="plus-sign" fill="none" fill-rule="evenodd" stroke="none" stroke-width="1"><path id="add-button" fill="#4A4A4A" d="M21.5,43 C33.3741221,43 43,33.3741221 43,21.5 C43,9.62587788 33.3741221,0 21.5,0 C9.62587788,0 0,9.62587788 0,21.5 C0,33.3741221 9.62587788,43 21.5,43 L21.5,43 L21.5,43 Z M13.548,19.632 C12.648,19.632 12,20.1 12,21.108 C12,22.116 12.648,22.584 13.548,22.584 L19.632,22.584 L19.632,28.668 C19.632,29.568 20.1,30.216 21.108,30.216 C22.116,30.216 22.584,29.568 22.584,28.668 L22.584,22.584 L28.668,22.584 C29.568,22.584 30.216,22.116 30.216,21.108 C30.216,20.1 29.568,19.632 28.668,19.632 L22.584,19.632 L22.584,13.548 C22.584,12.648 22.116,12 21.108,12 C20.1,12 19.632,12.648 19.632,13.548 L19.632,19.632 L13.548,19.632 L13.548,19.632 Z"/></g></svg>