<svg xmlns="http://www.w3.org/2000/svg" xmlns:xlink="http://www.w3.org/1999/xlink" width="15" height="16" version="1.1" viewBox="0 0 15 16"><title>github</title><desc>Created with Sketch.</desc><g id="Page-1" fill="none" fill-rule="evenodd" stroke="none" stroke-width="1"><g id="social-icons" fill="#979797" transform="translate(-176.000000, -9.000000)"><path id="github" d="M183.5,9.83326908 C179.358154,9.83326908 176,13.1914234 176,17.3332691 C176,20.6474781 178.14875,23.458147 181.129238,24.4496558 C181.50415,24.5183277 181.641025,24.2866919 181.641025,24.088938 C181.641025,23.9104029 181.634155,23.3189868 181.630493,22.6927661 C179.544922,23.1459449 179.104092,21.8083667 179.104092,21.8083667 C178.762607,20.9422779 178.271416,20.711565 178.271416,20.711565 C177.58981,20.2464771 178.323125,20.2556324 178.323125,20.2556324 C179.076143,20.3078101 179.472588,21.0283374 179.472588,21.0283374 C180.141846,22.1745777 181.228569,21.8431568 181.655205,21.650896 C181.723379,21.1674976 181.917471,20.8360767 182.131279,20.6493091 C180.466396,20.4598023 178.715,19.8161792 178.715,16.9423316 C178.715,16.1229273 179.007515,15.454607 179.486328,14.9295484 C179.409878,14.7391187 179.151699,13.976023 179.560479,12.9437769 C179.560479,12.9437769 180.189453,12.7423609 181.623154,13.7128199 C182.220986,13.5457398 182.862324,13.4633423 183.499985,13.4605884 C184.137192,13.4633423 184.77897,13.546648 185.377739,13.7137281 C186.808716,12.7423609 187.438599,12.9446851 187.438599,12.9446851 C187.848755,13.977854 187.590576,14.7400269 187.513672,14.9295484 C187.994316,15.454607 188.284546,16.1229419 188.284546,16.9423316 C188.284546,19.8235035 186.530396,20.4579566 184.859565,20.643816 C185.129653,20.8763599 185.368599,21.3322925 185.368599,22.0317554 C185.368599,23.0342652 185.358521,23.8426685 185.358521,24.0898609 C185.358521,24.2894458 185.494927,24.522898 185.874878,24.4496558 C188.853096,23.456316 191,20.645647 191,17.3332691 C191,13.1914234 187.641846,9.83326908 183.5,9.83326908 L183.5,9.83326908 Z"/></g></g></svg>