<svg xmlns="http://www.w3.org/2000/svg" xmlns:xlink="http://www.w3.org/1999/xlink" width="319" height="20" version="1.1" viewBox="0 0 319 20"><title>heart-sprite</title><desc>Created with Sketch.</desc><g id="Page-1" fill="none" fill-rule="evenodd" stroke="none" stroke-width="1"><g id="heart-sprite"><path id="new" fill="#979797" d="M10.499762,17.3911272 L10.2064072,17.2184969 C10.0273616,17.1129359 5.78975513,14.5905511 3.37176497,10.7687736 C2.08695254,8.73978471 1.68745345,6.59706984 2.24616897,4.73662879 C2.70398911,3.21386653 3.76543196,2.00953714 5.23570529,1.34817659 C5.7489304,1.11722528 6.27848541,1 6.80979005,1 C8.51101468,1 9.83140293,2.18275061 10.499762,2.93684161 C11.1687043,2.18275061 12.4885093,1 14.1903172,1 C14.7216218,1 15.2511768,1.11664207 15.7638187,1.34817659 C17.2340921,2.00953714 18.2961181,3.21328332 18.7539383,4.73662879 C19.3126538,6.59648663 18.9125715,8.73861829 17.6283423,10.7693568 C15.2103521,14.5905511 10.9727456,17.1129359 10.7937,17.2184969 L10.499762,17.3911272 L10.499762,17.3911272 Z M6.80920684,2.15767257 C6.44236752,2.15767257 6.07319536,2.24107165 5.70985531,2.40437055 C4.55043311,2.92634382 3.71352624,3.87347745 3.35368545,5.07022511 C2.89294926,6.60406836 3.24637474,8.40852122 4.34922554,10.1505706 C6.26623799,13.1797652 9.51180366,15.4052959 10.499762,16.0386624 C11.4877204,15.4041295 14.7367853,13.1745163 16.6508817,10.1505706 C17.7531493,8.40852122 18.107158,6.60406836 17.6458386,5.07022511 C17.2859978,3.87289424 16.4490909,2.92576061 15.2890855,2.40437055 C14.9257454,2.24107165 14.5565733,2.15767257 14.1903172,2.15767257 C12.3567038,2.15767257 10.9949076,4.16858189 10.9814938,4.18899426 L10.499762,4.91100868 L10.0186135,4.18899426 C10.0051996,4.16974831 8.63115601,2.15767257 6.80920684,2.15767257 L6.80920684,2.15767257 Z"/><path id="hover" fill="#4A4A4A" d="M108.499762,17.3911272 L108.206407,17.2184969 C108.027362,17.1129359 103.789755,14.5905511 101.371765,10.7687736 C100.086953,8.73978471 99.6874534,6.59706984 100.246169,4.73662879 C100.703989,3.21386653 101.765432,2.00953714 103.235705,1.34817659 C103.74893,1.11722528 104.278485,1 104.80979,1 C106.511015,1 107.831403,2.18275061 108.499762,2.93684161 C109.168704,2.18275061 110.488509,1 112.190317,1 C112.721622,1 113.251177,1.11664207 113.763819,1.34817659 C115.234092,2.00953714 116.296118,3.21328332 116.753938,4.73662879 C117.312654,6.59648663 116.912571,8.73861829 115.628342,10.7693568 C113.210352,14.5905511 108.972746,17.1129359 108.7937,17.2184969 L108.499762,17.3911272 L108.499762,17.3911272 Z"/><path id="liked" fill="#D0011B" d="M308.499762,17.3911272 L308.206407,17.2184969 C308.027362,17.1129359 303.789755,14.5905511 301.371765,10.7687736 C300.086953,8.73978471 299.687453,6.59706984 300.246169,4.73662879 C300.703989,3.21386653 301.765432,2.00953714 303.235705,1.34817659 C303.74893,1.11722528 304.278485,1 304.80979,1 C306.511015,1 307.831403,2.18275061 308.499762,2.93684161 C309.168704,2.18275061 310.488509,1 312.190317,1 C312.721622,1 313.251177,1.11664207 313.763819,1.34817659 C315.234092,2.00953714 316.296118,3.21328332 316.753938,4.73662879 C317.312654,6.59648663 316.912571,8.73861829 315.628342,10.7693568 C313.210352,14.5905511 308.972746,17.1129359 308.7937,17.2184969 L308.499762,17.3911272 L308.499762,17.3911272 Z"/><g id="loading" fill="#F6A623" transform="translate(200.000000, 1.000000)"><path id="Shape" d="M8.49976201,16.3911272 L8.2064072,16.2184969 C8.02736162,16.1129359 3.78975513,13.5905511 1.37176497,9.76877355 C0.0869525444,7.73978471 -0.312546553,5.59706984 0.246168973,3.73662879 C0.703989107,2.21386653 1.76543196,1.00953714 3.23570529,0.348176586 C3.7489304,0.117225283 4.27848541,1.77635684e-15 4.80979005,1.77635684e-15 C6.51101468,1.77635684e-15 7.83140293,1.18275061 8.49976201,1.93684161 C9.16870429,1.18275061 10.4885093,1.77635684e-15 12.1903172,1.77635684e-15 C12.7216218,1.77635684e-15 13.2511768,0.116642072 13.7638187,0.348176586 C15.2340921,1.00953714 16.2961181,2.21328332 16.7539383,3.73662879 C17.3126538,5.59648663 16.9125715,7.73861829 15.6283423,9.76935676 C13.2103521,13.5905511 8.97274561,16.1129359 8.79370003,16.2184969 L8.49976201,16.3911272 L8.49976201,16.3911272 Z"/></g></g></g></svg>