<svg xmlns="http://www.w3.org/2000/svg" xmlns:xlink="http://www.w3.org/1999/xlink" width="309" height="68" version="1.1" viewBox="0 0 309 68"><title>logo</title><desc>Created with Sketch.</desc><g id="home-long-quote" fill="none" fill-rule="evenodd" stroke="none" stroke-width="1"><g id="Desktop-HD" fill="#979797" transform="translate(-83.000000, -54.000000)"><g id="logo" transform="translate(83.000000, 54.000000)"><path id="“" d="M5.00746433,9.073088 C8.33212814,4.98423556 12.0403514,2.01056929 16.1322453,0.152 L17.4574543,2.93984 C14.2025387,4.79840929 11.4242774,7.10997018 9.12258708,9.874592 C6.82089674,12.6392138 5.67006884,15.4386418 5.67006884,18.27296 C5.67006884,18.8305308 5.8444367,19.2487026 6.19317766,19.527488 C6.54191862,19.8062734 6.99527507,19.945664 7.5532606,19.945664 C10.5756823,19.6204144 12.2031157,19.457792 12.4356096,19.457792 C13.9700699,19.457792 15.6323768,20.0153544 17.4225804,21.130496 C19.212784,22.2456376 20.1078724,24.1506425 20.1078724,26.845568 C20.1078724,29.1223154 19.3639028,31.0505521 17.8759414,32.630336 C16.38798,34.2101199 14.2723166,35 11.5288877,35 C8.32047084,35 5.60033215,33.7571004 3.36839001,31.271264 C1.13644787,28.7854276 0.020493538,25.6375231 0.020493538,21.827456 C0.020493538,17.4133539 1.68280051,13.1619404 5.00746433,9.073088 L5.00746433,9.073088 Z M29.9693398,8.898848 C33.3405024,4.8796919 37.0254766,1.96410506 41.0243729,0.152 L42.349582,2.93984 C39.0946663,4.79840929 36.316405,7.08673841 34.0147147,9.804896 C31.7130244,12.5230536 30.5621965,15.2992498 30.5621965,18.133568 C30.5621965,18.6446746 30.7016907,19.0744623 30.9806835,19.422944 C31.2596763,19.7714257 31.7479063,19.945664 32.4453882,19.945664 C35.4213111,19.6204144 37.0487445,19.457792 37.3277372,19.457792 C39.0481926,19.457792 40.7569977,20.0734338 42.4542037,21.304736 C44.1514097,22.5360382 45,24.3597319 45,26.775872 C45,28.6809055 44.3374021,30.5278311 43.0121865,32.316704 C41.6869708,34.1055769 39.4666867,35 36.3512674,35 C33.0033542,35 30.2599665,33.7106369 28.1210219,31.131872 C25.9820774,28.5531071 24.9126212,25.6375203 24.9126212,22.385024 C24.9126212,17.4133511 26.5981772,12.9180041 29.9693398,8.898848 L29.9693398,8.898848 Z"/><path id="That’s-the-spirit!" d="M51.848,7.928 L51.848,9.404 L58.076,9.404 L58.076,35 L59.876,35 L59.876,9.404 L66.104,9.404 L66.104,7.928 L51.848,7.928 Z M69.344,7.064 L69.344,35 L71.144,35 L71.144,21.716 C71.144,20.096 71.468,16.964 75.14,16.964 C76.868,16.964 77.804,17.648 78.344,18.512 C78.992,19.592 78.992,20.888 78.992,22.328 L78.992,35 L80.792,35 L80.792,22.328 C80.792,20.492 80.792,18.836 79.928,17.468 C79.136,16.208 77.768,15.38 75.5,15.38 C72.944,15.38 71.504,16.46 71.144,18.404 L71.144,7.064 L69.344,7.064 Z M85.94,17.792 L86.156,17.792 C86.156,17.792 87.956,16.964 90.044,16.964 C91.664,16.964 92.852,17.468 93.392,18.44 C93.968,19.448 93.968,20.924 93.968,22.508 L93.968,23.984 C90.872,23.984 88.856,24.056 87.164,25.028 C85.364,26.072 84.716,27.836 84.716,29.888 C84.716,33.524 86.732,35.324 89.612,35.324 C92.168,35.324 93.5,33.92 93.968,32.156 L94.472,35 L95.768,35 L95.768,22.544 C95.768,20.276 95.768,18.692 94.94,17.396 C94.04,16.028 92.348,15.488 90.224,15.488 C87.776,15.488 85.94,16.208 85.94,16.208 L85.94,17.792 Z M86.624,29.78 C86.624,28.484 86.912,27.332 87.956,26.468 C89.144,25.496 90.548,25.424 93.968,25.424 L93.968,27.584 C93.968,28.952 93.932,30.284 93.32,31.616 C92.672,32.984 91.448,33.848 89.864,33.848 C87.884,33.848 86.624,32.48 86.624,29.78 L86.624,29.78 Z M108.656,33.308 L108.44,33.308 C108.44,33.308 107.396,33.704 106.316,33.704 C105.164,33.704 104.552,33.236 104.228,32.516 C103.904,31.76 103.904,30.896 103.904,29.276 L103.904,17.432 L108.656,17.432 L108.656,15.956 L103.904,15.956 L103.904,9.8 L102.104,10.412 L102.104,15.956 L99.008,15.956 L99.008,17.432 L102.104,17.432 L102.104,29.312 C102.104,31.328 102.104,32.552 102.716,33.596 C103.292,34.568 104.408,35.18 106.244,35.18 C107.576,35.18 108.656,34.856 108.656,34.856 L108.656,33.308 Z M113.588,14.804 L115.316,7.064 L113.408,7.064 L112.328,14.804 L113.588,14.804 Z M125.972,16.028 C125.972,16.028 124.532,15.488 122.768,15.488 C119.492,15.488 117.62,17.36 117.62,20.276 C117.62,22.904 119.168,24.2 121.076,25.424 C123.056,26.684 124.748,27.656 124.748,30.32 C124.748,32.552 123.56,33.74 121.328,33.74 C119.42,33.74 117.8,32.876 117.8,32.876 L117.584,32.876 L117.584,34.46 C117.584,34.46 118.952,35.216 121.076,35.216 C124.172,35.216 126.548,33.632 126.548,29.996 C126.548,27.584 125.504,26.108 123.2,24.488 C120.968,22.94 119.42,22.328 119.42,20.024 C119.42,17.936 120.68,16.964 122.66,16.964 C124.244,16.964 125.756,17.612 125.756,17.612 L125.972,17.612 L125.972,16.028 Z M146.42,33.308 L146.204,33.308 C146.204,33.308 145.16,33.704 144.08,33.704 C142.928,33.704 142.316,33.236 141.992,32.516 C141.668,31.76 141.668,30.896 141.668,29.276 L141.668,17.432 L146.42,17.432 L146.42,15.956 L141.668,15.956 L141.668,9.8 L139.868,10.412 L139.868,15.956 L136.772,15.956 L136.772,17.432 L139.868,17.432 L139.868,29.312 C139.868,31.328 139.868,32.552 140.48,33.596 C141.056,34.568 142.172,35.18 144.008,35.18 C145.34,35.18 146.42,34.856 146.42,34.856 L146.42,33.308 Z M150.524,7.064 L150.524,35 L152.324,35 L152.324,21.716 C152.324,20.096 152.648,16.964 156.32,16.964 C158.048,16.964 158.984,17.648 159.524,18.512 C160.172,19.592 160.172,20.888 160.172,22.328 L160.172,35 L161.972,35 L161.972,22.328 C161.972,20.492 161.972,18.836 161.108,17.468 C160.316,16.208 158.948,15.38 156.68,15.38 C154.124,15.38 152.684,16.46 152.324,18.404 L152.324,7.064 L150.524,7.064 Z M177.236,32.948 L177.02,32.948 C177.02,32.948 175.328,33.74 173.276,33.74 C169.712,33.74 168.2,31.4 168.2,25.64 L177.956,25.64 C177.956,22.4 177.956,19.952 176.948,18.008 C176.012,16.208 174.428,15.38 172.412,15.38 C168.02,15.38 166.292,19.268 166.292,25.316 C166.292,28.484 166.76,31.148 167.912,32.84 C168.884,34.28 170.504,35.216 173.276,35.216 C175.652,35.216 177.236,34.532 177.236,34.532 L177.236,32.948 Z M168.2,24.2 C168.344,20.42 169.28,16.82 172.376,16.82 C175.256,16.82 176.048,19.988 176.048,24.2 L168.2,24.2 Z M197.864,16.028 C197.864,16.028 196.424,15.488 194.66,15.488 C191.384,15.488 189.512,17.36 189.512,20.276 C189.512,22.904 191.06,24.2 192.968,25.424 C194.948,26.684 196.64,27.656 196.64,30.32 C196.64,32.552 195.452,33.74 193.22,33.74 C191.312,33.74 189.692,32.876 189.692,32.876 L189.476,32.876 L189.476,34.46 C189.476,34.46 190.844,35.216 192.968,35.216 C196.064,35.216 198.44,33.632 198.44,29.996 C198.44,27.584 197.396,26.108 195.092,24.488 C192.86,22.94 191.312,22.328 191.312,20.024 C191.312,17.936 192.572,16.964 194.552,16.964 C196.136,16.964 197.648,17.612 197.648,17.612 L197.864,17.612 L197.864,16.028 Z M204.524,41.912 L204.524,32.228 C205.172,34.28 206.72,35.324 208.988,35.324 C211.112,35.324 212.732,34.388 213.704,33.02 C214.82,31.472 215.288,29.06 215.288,25.28 C215.288,21.356 214.784,19.052 213.668,17.54 C212.624,16.136 211.148,15.38 209.204,15.38 C206.612,15.38 205.028,16.712 204.524,18.728 L204.02,15.704 L202.724,15.704 L202.724,41.912 L204.524,41.912 Z M208.916,33.848 C207.476,33.848 206.324,33.236 205.604,32.12 C204.74,30.752 204.452,28.7 204.452,25.352 C204.452,22.004 204.74,19.952 205.604,18.584 C206.324,17.468 207.476,16.856 208.916,16.856 C210.356,16.856 211.508,17.468 212.228,18.584 C213.092,19.952 213.38,22.004 213.38,25.352 C213.38,28.7 213.092,30.752 212.228,32.12 C211.508,33.236 210.356,33.848 208.916,33.848 L208.916,33.848 Z M219.716,8.828 L219.716,11.312 L221.66,11.312 L221.66,8.828 L219.716,8.828 Z M219.788,15.704 L219.788,35 L221.588,35 L221.588,15.704 L219.788,15.704 Z M233.792,15.56 L233.324,15.56 C231.128,15.56 229.22,16.136 228.644,18.548 L228.212,15.704 L226.916,15.704 L226.916,35 L228.716,35 L228.716,21.896 C228.716,20.024 228.932,17.18 232.532,17.18 C233.252,17.18 233.792,17.288 233.792,17.288 L233.792,15.56 Z M237.104,8.828 L237.104,11.312 L239.048,11.312 L239.048,8.828 L237.104,8.828 Z M237.176,15.704 L237.176,35 L238.976,35 L238.976,15.704 L237.176,15.704 Z M252.044,33.308 L251.828,33.308 C251.828,33.308 250.784,33.704 249.704,33.704 C248.552,33.704 247.94,33.236 247.616,32.516 C247.292,31.76 247.292,30.896 247.292,29.276 L247.292,17.432 L252.044,17.432 L252.044,15.956 L247.292,15.956 L247.292,9.8 L245.492,10.412 L245.492,15.956 L242.396,15.956 L242.396,17.432 L245.492,17.432 L245.492,29.312 C245.492,31.328 245.492,32.552 246.104,33.596 C246.68,34.568 247.796,35.18 249.632,35.18 C250.964,35.18 252.044,34.856 252.044,34.856 L252.044,33.308 Z M256.76,32.768 L256.76,35 L258.848,35 L258.848,32.768 L256.76,32.768 Z M256.868,7.928 L257.048,28.088 L258.56,28.088 L258.74,7.928 L256.868,7.928 Z"/><path id="Inspiring-quotes-for" d="M57.368,50.464 L57.368,64 L58.808,64 L58.808,50.464 L57.368,50.464 Z M61.418,54.226 L61.418,64 L62.84,64 L62.84,57.394 C62.84,56.62 62.984,55.288 64.586,55.288 C65.342,55.288 65.774,55.576 66.008,55.972 C66.296,56.44 66.296,57.034 66.296,57.682 L66.296,64 L67.718,64 L67.718,57.682 C67.718,56.71 67.718,55.828 67.304,55.144 C66.926,54.514 66.242,54.046 65.072,54.046 C63.776,54.046 62.966,54.622 62.786,55.666 L62.462,54.226 L61.418,54.226 Z M74.414,54.406 C74.414,54.406 73.676,54.118 72.686,54.118 C70.85,54.118 69.77,55.09 69.77,56.674 C69.77,58.06 70.58,58.69 71.48,59.284 C72.542,59.986 73.298,60.418 73.298,61.516 C73.298,62.452 72.74,62.992 71.678,62.992 C70.742,62.992 69.896,62.56 69.896,62.56 L69.788,62.56 L69.788,63.748 C69.788,63.748 70.508,64.108 71.66,64.108 C73.55,64.108 74.702,63.118 74.702,61.39 C74.702,60.094 74.054,59.338 73.136,58.69 C72.11,57.97 71.174,57.61 71.174,56.53 C71.174,55.684 71.732,55.234 72.668,55.234 C73.496,55.234 74.288,55.576 74.288,55.576 L74.414,55.576 L74.414,54.406 Z M78.14,67.438 L78.14,62.704 C78.464,63.658 79.184,64.18 80.318,64.18 C81.38,64.18 82.226,63.712 82.73,62.992 C83.306,62.182 83.558,60.94 83.558,59.05 C83.558,57.178 83.306,55.99 82.712,55.162 C82.172,54.424 81.398,54.046 80.426,54.046 C79.13,54.046 78.32,54.712 78.068,55.756 L77.744,54.226 L76.718,54.226 L76.718,67.438 L78.14,67.438 Z M80.084,63.01 C79.418,63.01 78.932,62.74 78.626,62.254 C78.23,61.642 78.104,60.724 78.104,59.104 C78.104,57.484 78.23,56.566 78.626,55.954 C78.932,55.468 79.418,55.198 80.084,55.198 C80.75,55.198 81.236,55.45 81.56,55.954 C81.956,56.566 82.082,57.484 82.082,59.104 C82.082,60.724 81.956,61.642 81.56,62.254 C81.236,62.758 80.75,63.01 80.084,63.01 L80.084,63.01 Z M85.592,50.716 L85.592,52.354 L87.086,52.354 L87.086,50.716 L85.592,50.716 Z M85.628,54.226 L85.628,64 L87.05,64 L87.05,54.226 L85.628,54.226 Z M93.53,54.136 L93.296,54.136 C92.09,54.136 91.19,54.478 90.884,55.81 L90.578,54.226 L89.534,54.226 L89.534,64 L90.956,64 L90.956,57.736 C90.956,56.854 91.028,55.54 92.738,55.54 C93.134,55.54 93.53,55.612 93.53,55.612 L93.53,54.136 Z M95.06,50.716 L95.06,52.354 L96.554,52.354 L96.554,50.716 L95.06,50.716 Z M95.096,54.226 L95.096,64 L96.518,64 L96.518,54.226 L95.096,54.226 Z M99.002,54.226 L99.002,64 L100.424,64 L100.424,57.394 C100.424,56.62 100.568,55.288 102.17,55.288 C102.926,55.288 103.358,55.576 103.592,55.972 C103.88,56.44 103.88,57.034 103.88,57.682 L103.88,64 L105.302,64 L105.302,57.682 C105.302,56.71 105.302,55.828 104.888,55.144 C104.51,54.514 103.826,54.046 102.656,54.046 C101.36,54.046 100.55,54.622 100.37,55.666 L100.046,54.226 L99.002,54.226 Z M113.312,54.226 L112.88,55.558 C112.592,54.658 111.872,54.046 110.576,54.046 C109.406,54.046 108.542,54.55 108.02,55.36 C107.48,56.206 107.282,57.394 107.282,59.014 C107.282,60.832 107.534,62.02 108.092,62.83 C108.614,63.586 109.424,64 110.432,64 C111.638,64 112.412,63.424 112.7,62.47 L112.7,63.28 C112.7,64.396 112.718,64.936 112.412,65.476 C112.034,66.124 111.278,66.43 110.27,66.43 C108.974,66.43 107.912,65.926 107.912,65.926 L107.786,65.926 L107.786,67.168 C107.786,67.168 108.74,67.564 110.234,67.564 C111.944,67.564 113.024,67.042 113.618,66.106 C114.122,65.314 114.122,64.486 114.122,63.262 L114.122,54.226 L113.312,54.226 Z M110.756,62.83 C110.072,62.83 109.604,62.56 109.298,62.092 C108.92,61.534 108.758,60.598 108.758,58.996 C108.758,57.412 108.92,56.476 109.298,55.918 C109.604,55.45 110.072,55.18 110.756,55.18 C111.44,55.18 111.908,55.45 112.214,55.918 C112.592,56.476 112.736,57.412 112.736,59.014 C112.736,60.598 112.592,61.534 112.214,62.092 C111.908,62.56 111.44,62.83 110.756,62.83 L110.756,62.83 Z M126.884,67.438 L126.884,54.226 L126.074,54.226 L125.642,55.594 C125.336,54.622 124.58,54.046 123.338,54.046 C122.258,54.046 121.376,54.496 120.836,55.288 C120.278,56.098 120.044,57.322 120.044,59.14 C120.044,61.138 120.332,62.344 120.98,63.172 C121.502,63.838 122.258,64.18 123.176,64.18 C124.472,64.18 125.21,63.496 125.462,62.614 L125.462,67.438 L126.884,67.438 Z M123.518,62.992 C122.852,62.992 122.366,62.722 122.06,62.236 C121.664,61.624 121.52,60.706 121.52,59.086 C121.52,57.466 121.664,56.548 122.06,55.936 C122.366,55.45 122.852,55.18 123.518,55.18 C124.184,55.18 124.67,55.45 124.976,55.936 C125.372,56.548 125.498,57.466 125.498,59.086 C125.498,60.706 125.372,61.624 124.976,62.236 C124.67,62.722 124.184,62.992 123.518,62.992 L123.518,62.992 Z M135.542,64 L135.542,54.226 L134.12,54.226 L134.12,60.832 C134.12,61.588 133.976,62.938 132.464,62.938 C131.726,62.938 131.33,62.632 131.096,62.254 C130.844,61.822 130.79,61.372 130.79,60.544 L130.79,54.226 L129.368,54.226 L129.368,60.544 C129.368,61.66 129.404,62.47 129.8,63.1 C130.214,63.766 130.916,64.18 131.96,64.18 C133.22,64.18 133.994,63.586 134.174,62.56 L134.498,64 L135.542,64 Z M144.632,59.05 C144.632,57.268 144.434,56.026 143.75,55.162 C143.138,54.388 142.238,54.046 141.14,54.046 C140.024,54.046 139.124,54.406 138.512,55.18 C137.846,56.026 137.612,57.232 137.612,59.176 C137.612,60.958 137.81,62.2 138.494,63.064 C139.106,63.838 139.97,64.18 141.086,64.18 C142.22,64.18 143.12,63.82 143.732,63.046 C144.398,62.2 144.632,60.994 144.632,59.05 L144.632,59.05 Z M141.122,63.1 C140.438,63.1 139.952,62.812 139.664,62.38 C139.268,61.804 139.088,60.868 139.088,59.104 C139.088,57.358 139.268,56.422 139.664,55.846 C139.952,55.414 140.438,55.126 141.122,55.126 C141.806,55.126 142.292,55.414 142.58,55.846 C142.976,56.422 143.138,57.358 143.138,59.104 C143.138,60.868 142.976,61.804 142.58,62.38 C142.292,62.812 141.806,63.1 141.122,63.1 L141.122,63.1 Z M150.914,62.776 L150.788,62.776 C150.788,62.776 150.23,62.974 149.69,62.974 C149.168,62.974 148.898,62.776 148.754,62.488 C148.592,62.164 148.592,61.75 148.592,61.048 L148.592,55.45 L150.914,55.45 L150.914,54.334 L148.592,54.334 L148.592,51.328 L147.17,51.742 L147.17,54.334 L145.694,54.334 L145.694,55.45 L147.17,55.45 L147.17,61.03 C147.17,62.11 147.17,62.722 147.512,63.262 C147.908,63.874 148.628,64.108 149.528,64.108 C150.338,64.108 150.914,63.91 150.914,63.91 L150.914,62.776 Z M158.096,62.596 L157.97,62.596 C157.97,62.596 157.016,62.992 156.008,62.992 C154.316,62.992 153.596,61.876 153.596,59.482 L158.51,59.482 C158.51,57.772 158.492,56.404 157.934,55.396 C157.43,54.496 156.602,54.046 155.468,54.046 C153.02,54.046 152.156,56.116 152.156,59.122 C152.156,60.796 152.426,62.092 153.038,62.92 C153.56,63.622 154.424,64.108 155.9,64.108 C157.16,64.108 158.096,63.748 158.096,63.748 L158.096,62.596 Z M153.596,58.438 C153.668,56.44 154.154,55.126 155.432,55.126 C156.656,55.126 157.07,56.314 157.07,58.438 L153.596,58.438 Z M164.882,54.406 C164.882,54.406 164.144,54.118 163.154,54.118 C161.318,54.118 160.238,55.09 160.238,56.674 C160.238,58.06 161.048,58.69 161.948,59.284 C163.01,59.986 163.766,60.418 163.766,61.516 C163.766,62.452 163.208,62.992 162.146,62.992 C161.21,62.992 160.364,62.56 160.364,62.56 L160.256,62.56 L160.256,63.748 C160.256,63.748 160.976,64.108 162.128,64.108 C164.018,64.108 165.17,63.118 165.17,61.39 C165.17,60.094 164.522,59.338 163.604,58.69 C162.578,57.97 161.642,57.61 161.642,56.53 C161.642,55.684 162.2,55.234 163.136,55.234 C163.964,55.234 164.756,55.576 164.756,55.576 L164.882,55.576 L164.882,54.406 Z M175.394,55.45 L175.394,54.334 L173.144,54.334 L173.144,53.218 C173.144,52.534 173.144,52.102 173.324,51.742 C173.486,51.418 173.774,51.184 174.332,51.184 C174.8,51.184 175.286,51.346 175.286,51.346 L175.394,51.346 L175.394,50.194 C175.394,50.194 174.908,50.068 174.278,50.068 C173,50.068 172.37,50.572 172.046,51.166 C171.722,51.76 171.722,52.426 171.722,53.2 L171.722,54.334 L170.174,54.334 L170.174,55.45 L171.722,55.45 L171.722,64 L173.144,64 L173.144,55.45 L175.394,55.45 Z M183.296,59.05 C183.296,57.268 183.098,56.026 182.414,55.162 C181.802,54.388 180.902,54.046 179.804,54.046 C178.688,54.046 177.788,54.406 177.176,55.18 C176.51,56.026 176.276,57.232 176.276,59.176 C176.276,60.958 176.474,62.2 177.158,63.064 C177.77,63.838 178.634,64.18 179.75,64.18 C180.884,64.18 181.784,63.82 182.396,63.046 C183.062,62.2 183.296,60.994 183.296,59.05 L183.296,59.05 Z M179.786,63.1 C179.102,63.1 178.616,62.812 178.328,62.38 C177.932,61.804 177.752,60.868 177.752,59.104 C177.752,57.358 177.932,56.422 178.328,55.846 C178.616,55.414 179.102,55.126 179.786,55.126 C180.47,55.126 180.956,55.414 181.244,55.846 C181.64,56.422 181.802,57.358 181.802,59.104 C181.802,60.868 181.64,61.804 181.244,62.38 C180.956,62.812 180.47,63.1 179.786,63.1 L179.786,63.1 Z M189.362,54.136 L189.128,54.136 C187.922,54.136 187.022,54.478 186.716,55.81 L186.41,54.226 L185.366,54.226 L185.366,64 L186.788,64 L186.788,57.736 C186.788,56.854 186.86,55.54 188.57,55.54 C188.966,55.54 189.362,55.612 189.362,55.612 L189.362,54.136 Z M199.118,62.776 L198.992,62.776 C198.992,62.776 198.434,62.974 197.894,62.974 C197.372,62.974 197.102,62.776 196.958,62.488 C196.796,62.164 196.796,61.75 196.796,61.048 L196.796,55.45 L199.118,55.45 L199.118,54.334 L196.796,54.334 L196.796,51.328 L195.374,51.742 L195.374,54.334 L193.898,54.334 L193.898,55.45 L195.374,55.45 L195.374,61.03 C195.374,62.11 195.374,62.722 195.716,63.262 C196.112,63.874 196.832,64.108 197.732,64.108 C198.542,64.108 199.118,63.91 199.118,63.91 L199.118,62.776 Z M201.026,50.068 L201.026,64 L202.448,64 L202.448,57.394 C202.448,56.638 202.574,55.288 204.194,55.288 C204.95,55.288 205.382,55.576 205.616,55.972 C205.904,56.44 205.886,57.034 205.886,57.682 L205.886,64 L207.326,64 L207.326,57.682 C207.326,56.71 207.308,55.828 206.894,55.144 C206.498,54.478 205.814,54.046 204.662,54.046 C203.348,54.046 202.628,54.622 202.448,55.594 L202.448,50.068 L201.026,50.068 Z M215.246,62.596 L215.12,62.596 C215.12,62.596 214.166,62.992 213.158,62.992 C211.466,62.992 210.746,61.876 210.746,59.482 L215.66,59.482 C215.66,57.772 215.642,56.404 215.084,55.396 C214.58,54.496 213.752,54.046 212.618,54.046 C210.17,54.046 209.306,56.116 209.306,59.122 C209.306,60.796 209.576,62.092 210.188,62.92 C210.71,63.622 211.574,64.108 213.05,64.108 C214.31,64.108 215.246,63.748 215.246,63.748 L215.246,62.596 Z M210.746,58.438 C210.818,56.44 211.304,55.126 212.582,55.126 C213.806,55.126 214.22,56.314 214.22,58.438 L210.746,58.438 Z M226.46,62.668 L226.352,62.668 C226.352,62.668 225.722,62.938 224.966,62.938 C223.292,62.938 222.644,61.57 222.644,59.068 C222.644,56.584 223.292,55.27 224.948,55.27 C225.722,55.27 226.352,55.558 226.352,55.558 L226.46,55.558 L226.46,54.37 C226.46,54.37 225.812,54.118 224.84,54.118 C222.086,54.118 221.168,56.098 221.168,59.14 C221.168,62.182 222.086,64.108 224.822,64.108 C225.812,64.108 226.46,63.856 226.46,63.856 L226.46,62.668 Z M232.382,54.136 L232.148,54.136 C230.942,54.136 230.042,54.478 229.736,55.81 L229.43,54.226 L228.386,54.226 L228.386,64 L229.808,64 L229.808,57.736 C229.808,56.854 229.88,55.54 231.59,55.54 C231.986,55.54 232.382,55.612 232.382,55.612 L232.382,54.136 Z M239.204,62.596 L239.078,62.596 C239.078,62.596 238.124,62.992 237.116,62.992 C235.424,62.992 234.704,61.876 234.704,59.482 L239.618,59.482 C239.618,57.772 239.6,56.404 239.042,55.396 C238.538,54.496 237.71,54.046 236.576,54.046 C234.128,54.046 233.264,56.116 233.264,59.122 C233.264,60.796 233.534,62.092 234.146,62.92 C234.668,63.622 235.532,64.108 237.008,64.108 C238.268,64.108 239.204,63.748 239.204,63.748 L239.204,62.596 Z M234.704,58.438 C234.776,56.44 235.262,55.126 236.54,55.126 C237.764,55.126 238.178,56.314 238.178,58.438 L234.704,58.438 Z M241.778,55.666 L241.904,55.666 C241.904,55.666 242.894,55.234 243.974,55.234 C244.784,55.234 245.306,55.486 245.558,55.918 C245.81,56.368 245.81,56.944 245.81,57.736 L245.81,58.258 C244.37,58.258 243.2,58.276 242.3,58.87 C241.454,59.428 241.112,60.292 241.112,61.354 C241.112,63.244 242.174,64.18 243.668,64.18 C245.036,64.18 245.666,63.406 245.882,62.542 L246.206,64 L247.214,64 L247.214,57.898 C247.214,56.62 247.232,55.81 246.782,55.126 C246.278,54.37 245.324,54.118 244.172,54.118 C242.75,54.118 241.778,54.496 241.778,54.496 L241.778,55.666 Z M242.57,61.21 C242.57,60.58 242.714,60.076 243.164,59.716 C243.704,59.302 244.37,59.284 245.81,59.284 L245.81,60.31 C245.81,60.796 245.81,61.426 245.522,62.056 C245.18,62.776 244.604,63.028 244.01,63.028 C243.11,63.028 242.57,62.452 242.57,61.21 L242.57,61.21 Z M253.946,62.776 L253.82,62.776 C253.82,62.776 253.262,62.974 252.722,62.974 C252.2,62.974 251.93,62.776 251.786,62.488 C251.624,62.164 251.624,61.75 251.624,61.048 L251.624,55.45 L253.946,55.45 L253.946,54.334 L251.624,54.334 L251.624,51.328 L250.202,51.742 L250.202,54.334 L248.726,54.334 L248.726,55.45 L250.202,55.45 L250.202,61.03 C250.202,62.11 250.202,62.722 250.544,63.262 C250.94,63.874 251.66,64.108 252.56,64.108 C253.37,64.108 253.946,63.91 253.946,63.91 L253.946,62.776 Z M255.818,50.716 L255.818,52.354 L257.312,52.354 L257.312,50.716 L255.818,50.716 Z M255.854,54.226 L255.854,64 L257.276,64 L257.276,54.226 L255.854,54.226 Z M259.058,54.226 L261.902,64 L263.45,64 L266.294,54.226 L264.998,54.226 L262.784,62.218 L260.624,54.226 L259.058,54.226 Z M273.404,62.596 L273.278,62.596 C273.278,62.596 272.324,62.992 271.316,62.992 C269.624,62.992 268.904,61.876 268.904,59.482 L273.818,59.482 C273.818,57.772 273.8,56.404 273.242,55.396 C272.738,54.496 271.91,54.046 270.776,54.046 C268.328,54.046 267.464,56.116 267.464,59.122 C267.464,60.796 267.734,62.092 268.346,62.92 C268.868,63.622 269.732,64.108 271.208,64.108 C272.468,64.108 273.404,63.748 273.404,63.748 L273.404,62.596 Z M268.904,58.438 C268.976,56.44 269.462,55.126 270.74,55.126 C271.964,55.126 272.378,56.314 272.378,58.438 L268.904,58.438 Z M284.042,54.406 C284.042,54.406 283.304,54.118 282.314,54.118 C280.478,54.118 279.398,55.09 279.398,56.674 C279.398,58.06 280.208,58.69 281.108,59.284 C282.17,59.986 282.926,60.418 282.926,61.516 C282.926,62.452 282.368,62.992 281.306,62.992 C280.37,62.992 279.524,62.56 279.524,62.56 L279.416,62.56 L279.416,63.748 C279.416,63.748 280.136,64.108 281.288,64.108 C283.178,64.108 284.33,63.118 284.33,61.39 C284.33,60.094 283.682,59.338 282.764,58.69 C281.738,57.97 280.802,57.61 280.802,56.53 C280.802,55.684 281.36,55.234 282.296,55.234 C283.124,55.234 283.916,55.576 283.916,55.576 L284.042,55.576 L284.042,54.406 Z M292.898,59.05 C292.898,57.268 292.7,56.026 292.016,55.162 C291.404,54.388 290.504,54.046 289.406,54.046 C288.29,54.046 287.39,54.406 286.778,55.18 C286.112,56.026 285.878,57.232 285.878,59.176 C285.878,60.958 286.076,62.2 286.76,63.064 C287.372,63.838 288.236,64.18 289.352,64.18 C290.486,64.18 291.386,63.82 291.998,63.046 C292.664,62.2 292.898,60.994 292.898,59.05 L292.898,59.05 Z M289.388,63.1 C288.704,63.1 288.218,62.812 287.93,62.38 C287.534,61.804 287.354,60.868 287.354,59.104 C287.354,57.358 287.534,56.422 287.93,55.846 C288.218,55.414 288.704,55.126 289.388,55.126 C290.072,55.126 290.558,55.414 290.846,55.846 C291.242,56.422 291.404,57.358 291.404,59.104 C291.404,60.868 291.242,61.804 290.846,62.38 C290.558,62.812 290.072,63.1 289.388,63.1 L289.388,63.1 Z M301.142,64 L301.142,54.226 L299.72,54.226 L299.72,60.832 C299.72,61.588 299.576,62.938 298.064,62.938 C297.326,62.938 296.93,62.632 296.696,62.254 C296.444,61.822 296.39,61.372 296.39,60.544 L296.39,54.226 L294.968,54.226 L294.968,60.544 C294.968,61.66 295.004,62.47 295.4,63.1 C295.814,63.766 296.516,64.18 297.56,64.18 C298.82,64.18 299.594,63.586 299.774,62.56 L300.098,64 L301.142,64 Z M303.626,50.068 L303.626,64 L305.048,64 L305.048,50.068 L303.626,50.068 Z M307.37,62.326 L307.37,64 L308.882,64 L308.882,62.326 L307.37,62.326 Z"/></g></g></g></svg>