<svg xmlns="http://www.w3.org/2000/svg" xmlns:xlink="http://www.w3.org/1999/xlink" width="100" height="88" version="1.1" viewBox="0 0 100 88"><title>man</title><desc>Created with Sketch.</desc><g id="Page-1" fill="none" fill-rule="evenodd" stroke="none" stroke-width="1"><g id="man" fill="#4A4A4A"><path id="Shape" d="M99.224,83.339 C98.971,81.679 98.678,78.933 95.266,77.079 C84.919,71.457 72.033,68.426 67.692,65.108 C66.092,64.216 66.358,61.211 65.978,59.167 C65.614,57.232 61.934,60.156 60.523,61.375 C57.024,64.418 53.593,65.965 50.333,65.965 L50.209,65.965 C46.957,65.965 43.525,64.418 40.013,61.369 C38.162,59.769 33.791,57.763 33.406,59.805 C33.022,61.852 33.47,63.98 31.745,65.298 C27.403,68.619 14.479,71.288 4.226,77.079 C0.543,79.156 0.523,81.678 0.268,83.339 C0.195,83.807 0.1,85.627 0,88 L99.493,88 C99.392,85.627 99.297,83.809 99.224,83.339 L99.224,83.339 Z"/><path id="Shape" d="M29.3634387,32.3006101 C29.2264387,30.3956101 28.4514387,14.3556101 36.5744387,12.9426101 C38.3794387,12.6296101 38.9574387,12.1216101 39.0144387,11.8716101 C39.0284387,11.8056101 40.8464387,9.57461013 36.0634387,7.52261013 C24.4444387,8.20561013 28.1754387,26.0936101 28.1754387,26.0936101 L28.4084387,26.8816101 C28.5664387,28.7246101 28.8444387,30.5606101 29.3034387,32.2106101 C29.3034387,32.2106101 29.3674387,32.1376101 29.3634387,32.3006101 Z"/><path id="Shape" d="M36.2062727,6.74420383 C37.7362727,7.76920383 45.4932727,9.93920383 58.5752727,9.66620383 L59.0672727,9.66120383 C63.8512727,9.66120383 67.3582727,11.1442038 69.5172727,14.0432038 C69.5132727,14.0142038 69.5072727,13.9722038 69.5072727,13.9722038 C67.1592727,-5.15579617 33.6672727,-0.285796173 36.1292727,6.70120383 L36.2062727,6.74420383 L36.2062727,6.74420383 Z"/></g></g></svg>