<?xml version="1.0" encoding="UTF-8" standalone="no"?>
<svg width="12px" height="15px" viewBox="0 0 12 15" version="1.1" xmlns="http://www.w3.org/2000/svg" xmlns:xlink="http://www.w3.org/1999/xlink" xmlns:sketch="http://www.bohemiancoding.com/sketch/ns">
    <!-- Generator: Sketch 3.2.2 (9983) - http://www.bohemiancoding.com/sketch -->
    <title>pinterest</title>
    <desc>Created with Sketch.</desc>
    <defs></defs>
    <g id="Page-1" stroke="none" stroke-width="1" fill="none" fill-rule="evenodd" sketch:type="MSPage">
        <g id="social-icons" sketch:type="MSArtboardGroup" transform="translate(-87.000000, -10.000000)" fill="#979797">
            <path d="M93.3631674,10 C89.1329224,10 87,12.9348921 87,15.382326 C87,16.8642216 87.5797823,18.1825786 88.823303,18.6738644 C89.0272108,18.7545332 89.2098575,18.6766395 89.2689927,18.4581733 C89.3101303,18.306979 89.4074364,17.9255482 89.4508484,17.7666985 C89.510478,17.5506246 89.4873382,17.4748361 89.322788,17.2865131 C88.9642189,16.8772358 88.7350946,16.3473859 88.7350946,15.5968688 C88.7350946,13.4194794 90.4185696,11.4702211 93.1188143,11.4702211 C95.5098353,11.4702211 96.8234678,12.8839836 96.8234678,14.7720943 C96.8234678,17.2563699 95.6873398,19.3530905 94.0007005,19.3530905 C93.0692713,19.3530905 92.3720097,18.6076451 92.5954973,17.693398 C92.8630891,16.6019282 93.3814617,15.4239523 93.3814617,14.6361151 C93.3814617,13.9308606 92.9902595,13.3426382 92.1806607,13.3426382 C91.228465,13.3426382 90.4635638,14.2958322 90.4635638,15.5727543 C90.4635638,16.3860457 90.7475711,16.9360868 90.7475711,16.9360868 C90.7475711,16.9360868 89.7731254,20.9313485 89.6023453,21.6310528 C89.2621694,23.0245285 89.55122,24.7327371 89.5756455,24.9052708 C89.5899843,25.0074705 89.7257579,25.0317764 89.7872665,24.9545525 C89.8750793,24.8436448 91.0091307,23.488829 91.3946963,22.1350657 C91.5037701,21.7517212 92.0209561,19.7667696 92.0209561,19.7667696 C92.3302788,20.3377673 93.2344148,20.8407276 94.195906,20.8407276 C97.0581299,20.8407276 99,18.315687 99,14.9358243 C99,12.3801621 96.7630471,10 93.3631674,10 L93.3631674,10 Z" id="pinterest" sketch:type="MSShapeGroup"></path>
        </g>
    </g>
</svg>