<svg xmlns="http://www.w3.org/2000/svg" xmlns:xlink="http://www.w3.org/1999/xlink" width="19" height="15" version="1.1" viewBox="0 0 19 15"><title>reddit</title><desc>Created with Sketch.</desc><g id="Page-1" fill="none" fill-rule="evenodd" stroke="none" stroke-width="1"><g id="social-icons" transform="translate(-205.000000, -11.000000)"><g id="reddit" transform="translate(205.000000, 11.000000)"><path id="Shape" fill="#979797" d="M14.6884615,1.44230769 C14.6884615,2.09134615 15.2,2.59615385 15.8576923,2.59615385 C16.5153846,2.59615385 17.0269231,2.09134615 17.0269231,1.44230769 C17.0269231,0.793269231 16.5153846,0.288461538 15.8576923,0.288461538 C15.2730769,0.288461538 14.6884615,0.793269231 14.6884615,1.44230769 L14.6884615,1.44230769 Z M14.6153846,0.793269231 L10.6692308,0 C10.5230769,0 10.3038462,0.0721153846 10.3038462,0.216346154 L8.76923077,4.32692308 L9.5,4.32692308 L10.8153846,0.649038462 L14.4692308,1.37019231 L14.6153846,0.793269231 L14.6153846,0.793269231 Z M0.803846154,9.01442308 C1.09615385,7.93269231 1.9,6.92307692 2.99615385,6.12980769 C2.70384615,5.84134615 2.26538462,5.69711538 1.82692308,5.69711538 C0.803846154,5.69711538 0,6.49038462 0,7.5 C0,8.07692308 0.292307692,8.65384615 0.803846154,9.01442308 L0.803846154,9.01442308 Z M17.2461538,9.95192308 C17.2461538,7.13942308 13.6653846,4.90384615 9.28076923,4.90384615 C4.89615385,4.90384615 1.31538462,7.13942308 1.31538462,9.95192308 C1.31538462,12.7644231 4.89615385,15 9.28076923,15 C13.6653846,15 17.2461538,12.7644231 17.2461538,9.95192308 L17.2461538,9.95192308 Z M18.6346154,7.5 C18.6346154,6.49038462 17.8307692,5.69711538 16.8076923,5.69711538 C16.3692308,5.69711538 15.9307692,5.91346154 15.5653846,6.20192308 C16.6615385,6.99519231 17.4653846,8.00480769 17.7576923,9.08653846 C18.2692308,8.72596154 18.6346154,8.14903846 18.6346154,7.5 L18.6346154,7.5 Z"/><ellipse id="Oval" cx="12.204" cy="8.942" fill="#FFF" rx="1.242" ry="1.226"/><ellipse id="Oval" cx="6.358" cy="8.942" fill="#FFF" rx="1.242" ry="1.226"/><path id="Shape" fill="#FFF" d="M11.9846154,12.1875 C11.4730769,12.6923077 10.5961538,12.9807692 9.35384615,12.9807692 C8.11153846,12.9807692 7.23461538,12.7644231 6.72307692,12.1875 C6.57692308,12.0432692 6.43076923,12.0432692 6.28461538,12.1875 C6.13846154,12.3317308 6.13846154,12.4759615 6.28461538,12.6201923 C6.94230769,13.2692308 7.89230769,13.5576923 9.35384615,13.5576923 C10.7423077,13.5576923 11.7653846,13.2692308 12.4230769,12.6201923 C12.5692308,12.4759615 12.5692308,12.3317308 12.4230769,12.1875 C12.2769231,12.1153846 12.0576923,12.1153846 11.9846154,12.1875 L11.9846154,12.1875 Z"/></g></g></g></svg>