<svg xmlns="http://www.w3.org/2000/svg" xmlns:xlink="http://www.w3.org/1999/xlink" width="15" height="14" version="1.1" viewBox="0 0 15 14"><title>twitter</title><desc>Created with Sketch.</desc><g id="Page-1" fill="none" fill-rule="evenodd" stroke="none" stroke-width="1"><g id="social-icons" fill="#979797" transform="translate(-51.000000, -10.000000)"><path id="twitter" d="M66,12.1872141 C65.4481486,12.4482776 64.8549728,12.6246396 64.2325466,12.7039826 C64.8678733,12.2978291 65.3558984,11.6546883 65.5856238,10.8882941 C64.9909481,11.2644525 64.3323718,11.5375134 63.6313463,11.6846824 C63.0700447,11.0468198 62.2702437,10.6483453 61.3850922,10.6483453 C59.6855898,10.6483453 58.3076125,12.1177083 58.3076125,13.9301184 C58.3076125,14.1873429 58.3348373,14.437849 58.3873374,14.6780374 C55.8296826,14.541187 53.5621292,13.234588 52.0442767,11.2490161 C51.7793763,11.7337114 51.6275759,12.2974299 51.6275759,12.8989009 C51.6275759,14.0375352 52.1708771,15.0420388 52.9966278,15.6305517 C52.4921775,15.6135157 52.0176519,15.4658672 51.602751,15.2200807 C51.6024011,15.233757 51.6024011,15.2475136 51.6024011,15.2613513 C51.6024011,16.8514092 52.6632036,18.1777631 54.0710304,18.4794584 C53.812805,18.5544821 53.5409296,18.5945533 53.2602784,18.5945533 C53.0619785,18.5945533 52.8692289,18.5739179 52.6812783,18.535686 C53.0729286,19.8394851 54.2094057,20.7883207 55.5561079,20.8147146 C54.5028813,21.6950051 53.1759793,22.2196924 51.7341014,22.2196924 C51.4857005,22.2196924 51.2407507,22.2040956 51,22.1737815 C52.3619274,23.1050215 53.9795298,23.6483444 55.7174328,23.6483444 C61.377917,23.6483444 64.473397,18.6475826 64.473397,14.3105962 C64.473397,14.1683071 64.4703971,14.0268174 64.4644725,13.8859685 C65.0656729,13.4233476 65.5873739,12.8453912 65.9999501,12.1872141 L66,12.1872141 Z"/></g></g></svg>