<svg xmlns="http://www.w3.org/2000/svg" xmlns:xlink="http://www.w3.org/1999/xlink" width="25" height="25" version="1.1" viewBox="0 0 25 25"><title>unknown-sign</title><desc>Created with Sketch.</desc><g id="Page-1" fill="none" fill-rule="evenodd" stroke="none" stroke-width="1"><g id="unknown-sign" fill="#B9B9B9" stroke="#B9B9B9"><path id="?" d="M16.1258907,9.29526462 C16.1258907,7.35793872 14.567696,6 12.5724466,6 C10.52019,6 9,7.46657382 9,9.31337047 L10.368171,9.31337047 C10.368171,8.17270195 11.2232779,7.15877437 12.5724466,7.15877437 C13.8456057,7.15877437 14.7577197,8.0821727 14.7577197,9.29526462 C14.7577197,9.91086351 14.4916865,10.3272981 14.1306413,10.8342618 L12.5914489,12.9526462 C12.192399,13.4958217 12.0023753,13.948468 12.0023753,14.6545961 L12.0023753,15.3788301 L13.3705463,15.3788301 L13.3705463,14.6727019 C13.3705463,14.3830084 13.4845606,13.948468 13.7125891,13.6225627 L15.2707838,11.4860724 C15.7648456,10.7980501 16.1258907,10.1462396 16.1258907,9.29526462 L16.1258907,9.29526462 Z M13.5035629,19 L13.5035629,17.4791086 L11.8693587,17.4791086 L11.8693587,19 L13.5035629,19 Z"/></g></g></svg>