<svg xmlns="http://www.w3.org/2000/svg" xmlns:xlink="http://www.w3.org/1999/xlink" width="101" height="98" version="1.1" viewBox="0 0 101 98"><title>woman</title><desc>Created with Sketch.</desc><g id="Page-1" fill="none" fill-rule="evenodd" stroke="none" stroke-width="1"><g id="woman" fill="#4A4A4A" transform="translate(0.000000, -1.000000)"><path id="Shape-3" d="M100.158005,94.339 C99.9050054,92.679 99.6120054,89.933 96.2000054,88.079 C85.8530054,82.457 72.9670054,79.426 68.6260054,76.108 C67.0260054,75.216 67.2920054,72.211 66.9120054,70.167 C66.5480054,68.232 62.8680054,71.156 61.4570054,72.375 C57.9580054,75.418 54.5270054,76.965 51.2670054,76.965 L51.1430054,76.965 C47.8910054,76.965 44.4590054,75.418 40.9470054,72.369 C39.0960054,70.769 34.7250054,68.763 34.3400054,70.805 C33.9560054,72.852 34.4040054,74.98 32.6790054,76.298 C28.3370054,79.619 15.4130054,82.288 5.16000544,88.079 C1.47700544,90.156 1.45700544,92.678 1.20200544,94.339 C1.12900544,94.807 1.03400544,96.627 0.934005437,99 L100.427005,99 C100.326005,96.627 100.231005,94.809 100.158005,94.339 L100.158005,94.339 Z"/><path id="Shape-7" d="M49.1215745,0.98761 C35.3482553,0.98761 24.1825106,11.72279 24.1825106,24.9651 C24.1825106,24.9651 23.8143404,31.91689 24.7874894,35.92011 C25.3182979,35.77504 25.9250638,35.64599 26.5684681,35.60416 C26.6908936,35.59615 26.8133191,35.59081 26.9375319,35.58814 C27.086766,35.58725 27.2431489,35.57746 27.4075745,35.56767 L28.0098723,35.5294 C28.4200426,35.50982 28.8748936,35.48579 29.3672766,35.45464 C30.0634043,35.40925 30.6951915,35.35407 31.298383,35.28732 C38.9602553,34.43559 45.8,30.93344 52.2063404,24.58151 C55.3688511,21.44782 57.7673191,17.81929 59.3284681,13.79916 C59.4071064,13.66121 60.9164255,10.84525 61.7528511,9.132 C61.2309787,11.9889 59.2417872,19.42574 52.0553191,25.91562 C45.356766,31.96406 38.3588511,35.18408 30.6737447,35.76169 C35.6887234,36.01623 44.7419574,35.86849 55.6494468,27.07351 C65.7026383,18.96828 66.9733617,8.82139 66.9733617,8.82139 L67.0242979,8.26959 C66.781234,8.03107 66.5345957,7.79522 66.2817021,7.56471 C61.8100426,3.48851 55.7700851,0.98761 49.1215745,0.98761 Z"/><path id="Shape-4" d="M76.5806383,71.39818 C75.9568936,69.47044 74.9354894,65.41204 74.6128936,61.78262 C74.2277447,57.46879 74.168766,49.67684 74.2089787,44.71954 C74.234,41.25922 72.7505957,39.34572 72.355617,38.64707 C71.7577872,37.46871 70.6836596,36.50751 69.1046383,35.74923 C69.5594894,41.11148 69.0251064,47.50435 67.7749362,51.30643 C66.4211064,55.41734 64.1629362,59.29329 61.1737872,62.68419 L61.1451915,63.29028 C61.1889787,64.38676 61.3551915,65.76359 61.8600851,66.6883 C62.3372766,66.64291 62.959234,66.72212 63.6240851,67.17513 C65.0520851,68.14078 73.478,72.11463 77.0131489,72.49911 C77.0131489,72.49911 76.8397872,72.14133 76.5806383,71.39818 L76.5806383,71.39818 Z"/><path id="Path-2" d="M74.2520638,24.6717609 C74.093,18.9099009 71.8151702,13.6206309 68.1602766,9.48480089 C67.7331277,11.6911109 65.9816383,18.4969409 59.7844043,25.0037309 C59.8710851,27.6078709 61.2079362,30.9800809 67.361383,32.9808009 C71.7606596,34.4110309 73.4799787,36.7437209 74.0340213,38.9918609 C74.0706596,39.1422709 74.1064043,39.2944609 74.1314255,39.4448709 L74.1484043,39.1787609 C74.2449149,33.0715809 74.2869149,25.8536809 74.2520638,24.6717609 L74.2520638,24.6717609 Z"/><path id="Shape-6" d="M29.2278723,37.54347 C28.9472766,37.52478 28.6818723,37.51054 28.442383,37.50075 C28.1814468,37.4874 27.9365957,37.48206 27.7042553,37.48206 C26.1708085,37.48206 25.2941702,37.71079 25.285234,37.71435 L24.9724681,37.79801 C25.2771915,41.0919 25.8339149,48.14693 25.651617,54.19715 C25.2628936,67.11194 23.3764681,72.5 23.3764681,72.5 C26.9098298,72.11463 35.3384255,68.14167 36.7646383,67.17602 C37.4294894,66.72301 38.0514468,66.6438 38.5268511,66.68919 C38.7895745,66.20859 38.9593617,65.60428 39.0710638,64.98217 C34.9657872,61.09999 31.9176596,56.37854 30.2501702,51.30643 C28.7444255,46.72916 28.3977021,41.97656 29.2278723,37.54347 Z"/></g></g></svg>