<?xml version="1.0" encoding="UTF-8" standalone="no"?>
<svg width="200px" height="200px" viewBox="0 0 200 200" version="1.1" xmlns="http://www.w3.org/2000/svg" xmlns:xlink="http://www.w3.org/1999/xlink" xmlns:sketch="http://www.bohemiancoding.com/sketch/ns">
    <!-- Generator: Sketch 3.2.2 (9983) - http://www.bohemiancoding.com/sketch -->
    <title>default-portrait</title>
    <desc>Created with Sketch.</desc>
    <defs></defs>
    <g id="Page-1" stroke="none" stroke-width="1" fill="none" fill-rule="evenodd" sketch:type="MSPage">
        <g id="default-portrait" sketch:type="MSArtboardGroup" fill="#979797">
            <path d="M102.085387,101.569061 C107.953458,100.321823 111.943747,96.3425414 111.943747,89.9281768 C111.943747,83.6325967 106.545121,79 99.4447543,79 C93.9874476,79 88.2367373,82.7417127 88.0020145,87.968232 C87.9433338,89.6312155 89.1756288,90.7002762 90.5252853,90.7002762 C91.5815382,90.7002762 92.2857068,90.2845304 92.8138333,88.7403315 C94.1048091,84.9986188 96.5107185,83.8701657 99.6207965,83.8701657 C103.552405,83.8701657 106.42776,86.3646409 106.42776,90.4033149 C106.42776,92.6008287 105.66491,95.8674033 101.029134,96.8176796 C96.9801642,97.6491713 96.9214835,98.1243094 96.9214835,100.796961 L96.9214835,107.508287 C96.9214835,109.230663 97.9190557,110.299724 99.503435,110.299724 C101.087814,110.299724 102.085387,109.230663 102.085387,107.508287 L102.085387,101.569061 Z M96.5107185,118.970994 C96.5107185,120.633978 97.860375,122 99.503435,122 C101.146495,122 102.496152,120.633978 102.496152,118.970994 C102.496152,117.308011 101.146495,115.941989 99.503435,115.941989 C97.860375,115.941989 96.5107185,117.308011 96.5107185,118.970994 L96.5107185,118.970994 Z" id="?" sketch:type="MSShapeGroup"></path>
        </g>
    </g>
</svg>