<?xml version="1.0" encoding="UTF-8" standalone="no"?>
<svg width="15px" height="15px" viewBox="0 0 15 15" version="1.1" xmlns="http://www.w3.org/2000/svg">
    <g id="Page-1" stroke="none" stroke-width="1" fill="none" fill-rule="evenodd">
        <g id="social-icons" transform="translate(-153.000000, -10.000000)" fill="#979797">
            <g id="googleplus"  transform="translate(153.000000, 10.000000)">
                <path d="M7.94267857,8.51947674 L7.23142857,7.98 C7.01482143,7.80453488 6.71857143,7.57290698 6.71857143,7.14889535 C6.71857143,6.72313953 7.01482143,6.45244186 7.27196429,6.20180233 C8.10053571,5.56482558 8.92839286,4.88686047 8.92839286,3.45819767 C8.92839286,1.98906977 7.98196429,1.21622093 7.52839286,0.849593023 L8.75142857,0.849593023 L10.0351786,0.061744186 L6.14607143,0.061744186 C5.07892857,0.061744186 3.54107143,0.308372093 2.41517857,1.21622093 C1.56660714,1.93133721 1.15267857,2.91732558 1.15267857,3.80494186 C1.15267857,5.31174419 2.33714286,6.83912791 4.42875,6.83912791 C4.62625,6.83912791 4.84232143,6.82011628 5.05982143,6.80040698 C4.96214286,7.03255814 4.86339286,7.22581395 4.86339286,7.55389535 C4.86339286,8.15232558 5.17821429,8.51930233 5.45571429,8.8669186 C4.56696429,8.92656977 2.90785714,9.02267442 1.68482143,9.75697674 C0.52,10.4335465 0.165535714,11.418314 0.165535714,12.1133721 C0.165535714,13.5439535 1.54607143,14.8765116 4.40875,14.8765116 C7.80339286,14.8765116 9.60053571,13.0418023 9.60053571,11.2255814 C9.60071429,9.89110465 8.81142857,9.23424419 7.94267857,8.51947674 L7.94267857,8.51947674 Z M5.35714286,6.29773256 C3.65892857,6.29773256 2.88964286,4.15343023 2.88964286,2.85959302 C2.88964286,2.35587209 2.98732143,1.83575581 3.32321429,1.42953488 C3.63982143,1.04267442 4.19125,0.791686047 4.70607143,0.791686047 C6.34321429,0.791686047 7.19232143,2.95517442 7.19232143,4.34668605 C7.19232143,4.69482558 7.15303571,5.31174419 6.69910714,5.75773256 C6.38160714,6.06715116 5.85035714,6.29773256 5.35714286,6.29773256 L5.35714286,6.29773256 Z M5.37660714,14.0668605 C3.26482143,14.0668605 1.90303571,13.0801744 1.90303571,11.7081977 C1.90303571,10.3365698 3.16571429,9.87261628 3.60017857,9.71895349 C4.42875,9.44668605 5.495,9.40866279 5.67285714,9.40866279 C5.87017857,9.40866279 5.96892857,9.40866279 6.12607143,9.42802326 C7.62732143,10.4715698 8.27892857,10.991686 8.27892857,11.979593 C8.27892857,13.1759302 7.27196429,14.0668605 5.37660714,14.0668605 L5.37660714,14.0668605 Z" id="Shape" sketch:type="MSShapeGroup"></path>
                <path d="M12.9273214,6.26825581 L12.9273214,4.33656977 L11.9505357,4.33656977 L11.9505357,6.26825581 L9.97607143,6.26825581 L9.97607143,7.23296512 L11.9505357,7.23296512 L11.9505357,9.17651163 L12.9273214,9.17651163 L12.9273214,7.23296512 L14.9117857,7.23296512 L14.9117857,6.26825581 L12.9273214,6.26825581 Z" id="Shape-2" sketch:type="MSShapeGroup"></path>
            </g>
        </g>
    </g>
</svg>
